<?xml version="1.0" encoding="utf-8"?>
<!-- Generator: Adobe Illustrator 16.0.3, SVG Export Plug-In . SVG Version: 6.00 Build 0)  -->
<!DOCTYPE svg PUBLIC "-//W3C//DTD SVG 1.1//EN" "http://www.w3.org/Graphics/SVG/1.1/DTD/svg11.dtd">
<svg version="1.1" id="Livello_2" xmlns="http://www.w3.org/2000/svg" xmlns:xlink="http://www.w3.org/1999/xlink" x="0px" y="0px"
	 width="500px" height="500.031px" viewBox="0 0 500 500.031" enable-background="new 0 0 500 500.031" xml:space="preserve">
<g>
	<polygon fill-rule="evenodd" clip-rule="evenodd" fill="#312782" points="278.161,281.371 2.93,281.371 5.543,276.417 
		285.089,276.417 278.161,281.371 	"/>
	<polygon fill-rule="evenodd" clip-rule="evenodd" fill="#009540" points="280.677,276.448 5.446,276.448 8.06,271.494 
		287.605,271.494 280.677,276.448 	"/>
	<polygon fill-rule="evenodd" clip-rule="evenodd" fill="#E20613" points="283.166,271.499 7.936,271.499 10.549,266.545 
		290.095,266.545 283.166,271.499 	"/>
	<polygon fill-rule="evenodd" clip-rule="evenodd" fill="#FFEC00" points="285.709,266.604 10.479,266.604 13.092,261.649 
		292.638,261.649 285.709,266.604 	"/>
	<polygon fill-rule="evenodd" clip-rule="evenodd" fill="#312782" points="493.491,292.41 415.429,292.41 418.239,286.866 
		496.627,286.866 493.491,292.41 	"/>
	<polygon fill-rule="evenodd" clip-rule="evenodd" fill="#009540" points="490.403,297.918 415.464,297.918 418.162,292.374 
		493.414,292.374 490.403,297.918 	"/>
	<polygon fill-rule="evenodd" clip-rule="evenodd" fill="#E20613" points="487.503,303.427 415.958,303.427 418.534,297.882 
		490.378,297.882 487.503,303.427 	"/>
	<polygon fill-rule="evenodd" clip-rule="evenodd" fill="#FFEC00" points="484.908,308.793 417.3,308.793 419.734,303.249 
		487.623,303.249 484.908,308.793 	"/>
	<path fill-rule="evenodd" clip-rule="evenodd" fill="#312782" d="M73.859,233.45c0,2.644,1.914,4.558,4.285,4.558
		c2.37,0,3.556-2.188,4.376-4.011l-5.835,12.855c-4.832,9.3-22.063,4.467-22.063-7.567c0-1.186,0.273-2.462,0.547-3.465
		l14.132-46.406H50.884l43.124-24.981l-4.376,13.676h22.429v38.839l14.86-28.263v28.901l21.608-39.295h52.241l12.125-41.574
		c2.279-7.385,7.75-13.038,15.226-13.038c7.386,0,15.591,6.018,13.95,13.494c-0.365,1.55-2.826,11.487-3.282,13.22
		c-1.095-2.826-3.829-5.014-7.112-5.014c-3.828,0-7.02,2.917-7.566,6.291l-7.841,26.166h14.678l-17.687,11.67l-19.42,61.907h-14.77
		l18.144-61.998l-12.674-0.091l-19.511,62.271h-16.229l20.514-62.179l-6.017-0.091l-33.733,62.271h-9.756l-0.183-24.07
		l-13.767,24.07l-8.844,0.091v-62.453H86.623L73.859,233.45L73.859,233.45z"/>
	<path fill-rule="evenodd" clip-rule="evenodd" fill="#E20613" d="M195.944,148.017c0-9.801-7.934-17.794-17.66-17.794
		s-17.66,7.994-17.66,17.794c0,9.801,7.934,17.795,17.66,17.795S195.944,157.818,195.944,148.017L195.944,148.017z"/>
	<path fill-rule="evenodd" clip-rule="evenodd" stroke="#1D1D1B" stroke-width="1.44" stroke-miterlimit="2.6131" d="
		M421.136,260.305c1.186,0.183,2.371,0.365,3.646,0.365c10.212,0,18.6-8.936,18.6-19.876c0-10.94-8.388-19.875-18.6-19.875
		c-10.211,0-18.599,8.935-18.599,19.875c0,4.103,1.276,8.023,3.191,11.488l-90.442,34.1h46.133l-7.75,7.02l-46.132,0.092
		l-62.089,75.124h29.996l43.397-55.705c30.451,13.129,53.791,24.525,69.29-1.277L421.136,260.305L421.136,260.305z"/>
	<polygon fill-rule="evenodd" clip-rule="evenodd" fill="#1D1D1B" points="310.587,286.27 -0.016,286.27 2.934,281.315 
		323.092,281.315 310.587,286.27 	"/>
	
		<polygon fill-rule="evenodd" clip-rule="evenodd" fill="#1D1D1B" stroke="#1D1D1B" stroke-width="0.216" stroke-miterlimit="2.6131" points="
		496.595,286.761 411.424,286.761 414.491,281.217 500.016,281.217 496.595,286.761 	"/>
	
		<path fill-rule="evenodd" clip-rule="evenodd" fill="#1D1D1B" stroke="#1D1D1B" stroke-width="0.288" stroke-miterlimit="2.6131" d="
		M348.313,375.83c-24.239-6.228-49.364-35.175-49.364-74.192c0-34.881,18.327-62.961,48.772-74.49
		c-24.237,13.006-39.904,44.635-39.904,74.49C307.816,338.586,328.508,364.267,348.313,375.83L348.313,375.83z"/>
	
		<path fill-rule="evenodd" clip-rule="evenodd" fill="#1D1D1B" stroke="#1D1D1B" stroke-width="0.288" stroke-miterlimit="2.6131" d="
		M348.313,227.148c-34.88,4.139-66.51,39.329-64.735,74.49c1.775,35.161,28.97,73.609,64.439,74.488
		c-38.132,1.183-73.602-35.175-73.602-74.488S308.999,226.557,348.313,227.148L348.313,227.148z"/>
	
		<path fill-rule="evenodd" clip-rule="evenodd" fill="#1D1D1B" stroke="#1D1D1B" stroke-width="0.288" stroke-miterlimit="2.6131" d="
		M348.035,375.83c24.831-9.192,49.363-35.175,49.363-74.192c0-34.881-18.326-62.961-48.772-74.49
		c24.239,13.006,39.905,44.635,39.905,74.49C388.531,338.586,366.066,361.3,348.035,375.83L348.035,375.83z"/>
	
		<path fill-rule="evenodd" clip-rule="evenodd" fill="#1D1D1B" stroke="#1D1D1B" stroke-width="0.288" stroke-miterlimit="2.6131" d="
		M348.035,227.148c34.88,4.139,64.734,35.176,64.734,74.49s-28.377,71.237-64.438,74.488c38.131,3.556,73.603-35.175,73.603-74.488
		S387.349,226.557,348.035,227.148L348.035,227.148z"/>
</g>
</svg>
